<svg width="100" height="100" viewBox="0 0 100 100" fill="none" xmlns="http://www.w3.org/2000/svg">
<path d="M21.875 46.875H84.375C85.2038 46.875 85.9987 47.2042 86.5847 47.7903C87.1708 48.3763 87.5 49.1712 87.5 50C87.5 50.8288 87.1708 51.6237 86.5847 52.2097C85.9987 52.7958 85.2038 53.125 84.375 53.125H21.875C21.0462 53.125 20.2513 52.7958 19.6653 52.2097C19.0792 51.6237 18.75 50.8288 18.75 50C18.75 49.1712 19.0792 48.3763 19.6653 47.7903C20.2513 47.2042 21.0462 46.875 21.875 46.875Z" fill="#CF02D9"/>
<path d="M23.1688 50L49.0875 75.9125C49.6743 76.4993 50.0039 77.2951 50.0039 78.125C50.0039 78.9548 49.6743 79.7507 49.0875 80.3375C48.5007 80.9243 47.7048 81.2539 46.875 81.2539C46.0451 81.2539 45.2493 80.9243 44.6625 80.3375L16.5375 52.2125C16.2465 51.9222 16.0156 51.5773 15.858 51.1977C15.7005 50.818 15.6194 50.411 15.6194 50C15.6194 49.5889 15.7005 49.1819 15.858 48.8023C16.0156 48.4226 16.2465 48.0778 16.5375 47.7875L44.6625 19.6625C45.2493 19.0757 46.0451 18.746 46.875 18.746C47.7048 18.746 48.5007 19.0757 49.0875 19.6625C49.6743 20.2493 50.0039 21.0451 50.0039 21.875C50.0039 22.7048 49.6743 23.5007 49.0875 24.0875L23.1688 50Z" fill="#CF02D9"/>
</svg>
