<svg width="163" height="91" viewBox="0 0 163 91" fill="none" xmlns="http://www.w3.org/2000/svg">
<path d="M1.44999 12.79C1.06742 11.6475 0.918155 10.4398 1.01103 9.23853C1.10391 8.03726 1.43705 6.86686 1.9907 5.79673C2.54434 4.72661 3.30721 3.77855 4.23409 3.00876C5.16097 2.23896 6.23298 1.66311 7.38656 1.31535C8.54014 0.96759 9.7518 0.854998 10.9497 0.984246C12.1476 1.11349 13.3074 1.48195 14.3602 2.06778C15.4131 2.6536 16.3376 3.44487 17.0789 4.39466C17.8203 5.34444 18.3634 6.43341 18.676 7.597C37.45 70.471 126.514 70.48 145.306 7.633C145.643 6.49957 146.2 5.44357 146.945 4.52531C147.69 3.60705 148.608 2.84451 149.648 2.28123C150.687 1.71795 151.828 1.36496 153.004 1.24241C154.18 1.11986 155.369 1.23016 156.502 1.567C157.635 1.90384 158.691 2.46063 159.61 3.20558C160.528 3.95053 161.29 4.86905 161.854 5.90869C162.417 6.94834 162.77 8.08874 162.893 9.26481C163.015 10.4409 162.905 11.6296 162.568 12.763C159.293 24.0237 153.74 34.4912 146.251 43.516L157.726 55C159.365 56.6974 160.273 58.9708 160.252 61.3306C160.232 63.6904 159.285 65.9477 157.616 67.6164C155.948 69.285 153.69 70.2316 151.331 70.2521C148.971 70.2726 146.697 69.3654 145 67.726L133.201 55.927C126.833 60.7286 119.799 64.5761 112.321 67.348L115.534 79.363C115.877 80.5155 115.985 81.7249 115.853 82.9199C115.72 84.115 115.35 85.2714 114.763 86.3208C114.176 87.3703 113.385 88.2915 112.436 89.0301C111.488 89.7687 110.401 90.3098 109.239 90.6213C108.078 90.9329 106.866 91.0085 105.675 90.8439C104.484 90.6792 103.338 90.2776 102.305 89.6627C101.272 89.0479 100.372 88.2322 99.6593 87.2639C98.9466 86.2956 98.4351 85.1943 98.155 84.025L94.879 71.812C86.356 73.072 77.644 73.072 69.121 71.812L65.845 84.025C65.5649 85.1943 65.0534 86.2956 64.3407 87.2639C63.6279 88.2322 62.7284 89.0479 61.6951 89.6627C60.6619 90.2776 59.516 90.6792 58.3249 90.8439C57.1339 91.0085 55.922 90.9329 54.7607 90.6213C53.5994 90.3098 52.5123 89.7687 51.5636 89.0301C50.6149 88.2915 49.8238 87.3703 49.237 86.3208C48.6503 85.2714 48.2797 84.115 48.1473 82.9199C48.0149 81.7249 48.1232 80.5155 48.466 79.363L51.679 67.348C44.2005 64.5731 37.1665 60.7226 30.799 55.918L19.009 67.726C17.3214 69.416 15.0316 70.3663 12.6434 70.368C10.2551 70.3697 7.96395 69.4226 6.27399 67.735C4.58403 66.0474 3.63368 63.7576 3.63199 61.3694C3.6303 58.9811 4.57742 56.69 6.26499 55L17.74 43.525C10.684 35.101 5.04999 24.859 1.43199 12.799L1.44999 12.79Z" fill="#CF02D9"/>
</svg>
