<svg width="100" height="100" viewBox="0 0 100 100" fill="none" xmlns="http://www.w3.org/2000/svg">
<path d="M40.8691 41.2109C40.1204 42.4154 39.2578 43.5059 38.2812 44.4824C37.3047 45.459 36.1979 46.3379 34.9609 47.1191L37.4512 53.1738L31.6895 55.5176L29.1992 49.5117C27.8971 49.8372 26.4974 50 25 50C23.5026 50 22.1029 49.8372 20.8008 49.5117L18.3105 55.5176L12.5488 53.1738L15.0391 47.1191C13.8346 46.3704 12.7441 45.5078 11.7676 44.5312C10.791 43.5547 9.91211 42.4479 9.13086 41.2109L3.07617 43.7012L0.732422 37.9395L6.73828 35.4492C6.41276 34.1471 6.25 32.7474 6.25 31.25C6.25 29.7526 6.41276 28.3529 6.73828 27.0508L0.732422 24.5605L3.07617 18.7988L9.13086 21.2891C10.6283 18.8477 12.5977 16.8783 15.0391 15.3809L12.5488 9.32617L18.3105 6.98242L20.8008 12.9883C22.1029 12.6628 23.5026 12.5 25 12.5C26.4974 12.5 27.8971 12.6628 29.1992 12.9883L31.6895 6.98242L37.4512 9.32617L34.9609 15.3809C37.4023 16.8783 39.3717 18.8477 40.8691 21.2891L46.9238 18.7988L49.2676 24.5605L43.2617 27.0508C43.5872 28.3529 43.75 29.7526 43.75 31.25C43.75 32.7474 43.5872 34.1471 43.2617 35.4492L49.2676 37.9395L46.9238 43.7012L40.8691 41.2109ZM25 43.75C26.7253 43.75 28.3366 43.4245 29.834 42.7734C31.3314 42.1224 32.666 41.2272 33.8379 40.0879C35.0098 38.9486 35.9049 37.6302 36.5234 36.1328C37.1419 34.6354 37.4674 33.0078 37.5 31.25C37.5 29.5247 37.1745 27.9134 36.5234 26.416C35.8724 24.9186 34.9772 23.584 33.8379 22.4121C32.6986 21.2402 31.3802 20.3451 29.8828 19.7266C28.3854 19.1081 26.7578 18.7826 25 18.75C23.2747 18.75 21.6634 19.0755 20.166 19.7266C18.6686 20.3776 17.334 21.2728 16.1621 22.4121C14.9902 23.5514 14.0951 24.8698 13.4766 26.3672C12.8581 27.8646 12.5326 29.4922 12.5 31.25C12.5 32.9753 12.8255 34.5866 13.4766 36.084C14.1276 37.5814 15.0228 38.916 16.1621 40.0879C17.3014 41.2598 18.6198 42.1549 20.1172 42.7734C21.6146 43.3919 23.2422 43.7174 25 43.75ZM93.75 65.625C93.75 67.4154 93.5221 69.222 93.0664 71.0449L99.7559 73.7793L97.4121 79.5898L90.6738 76.8066C88.7533 79.9967 86.2142 82.5358 83.0566 84.4238L85.8398 91.1133L80.0293 93.5059L77.2949 86.8164C75.472 87.2721 73.6654 87.5 71.875 87.5C70.0846 87.5 68.278 87.2721 66.4551 86.8164L63.7207 93.5059L57.9102 91.1133L60.6934 84.4238C57.5033 82.5358 54.9642 79.9967 53.0762 76.8066L46.3379 79.5898L43.9941 73.7793L50.6836 71.0449C50.2279 69.222 50 67.4154 50 65.625C50 63.8346 50.2279 62.028 50.6836 60.2051L43.9941 57.4707L46.3379 51.6602L53.0762 54.4434C54.9642 51.2858 57.5033 48.7467 60.6934 46.8262L57.9102 40.0879L63.7207 37.7441L66.4551 44.4336C68.278 43.9779 70.0846 43.75 71.875 43.75C73.6654 43.75 75.472 43.9779 77.2949 44.4336L80.0293 37.7441L85.8398 40.0879L83.0566 46.8262C86.2142 48.7467 88.7533 51.2858 90.6738 54.4434L97.4121 51.6602L99.7559 57.4707L93.0664 60.2051C93.5221 62.028 93.75 63.8346 93.75 65.625ZM71.875 81.25C74.0234 81.25 76.0417 80.8431 77.9297 80.0293C79.8177 79.2155 81.4616 78.1087 82.8613 76.709C84.2611 75.3092 85.3841 73.6491 86.2305 71.7285C87.0768 69.8079 87.5 67.7734 87.5 65.625C87.5 63.4766 87.0931 61.4583 86.2793 59.5703C85.4655 57.6823 84.3424 56.0384 82.9102 54.6387C81.4779 53.2389 79.8177 52.1159 77.9297 51.2695C76.0417 50.4232 74.0234 50 71.875 50C69.7266 50 67.7083 50.4069 65.8203 51.2207C63.9323 52.0345 62.2721 53.1576 60.8398 54.5898C59.4076 56.0221 58.2845 57.6823 57.4707 59.5703C56.6569 61.4583 56.25 63.4766 56.25 65.625C56.25 67.7734 56.6569 69.7917 57.4707 71.6797C58.2845 73.5677 59.3913 75.2279 60.791 76.6602C62.1908 78.0924 63.8509 79.2155 65.7715 80.0293C67.6921 80.8431 69.7266 81.25 71.875 81.25Z" fill="#CF02D9"/>
</svg>
