<svg width="104" height="104" viewBox="0 0 104 104" fill="none" xmlns="http://www.w3.org/2000/svg">
<path d="M2 89.5C2 82.8696 4.63392 76.5107 9.32233 71.8223C14.0107 67.1339 20.3696 64.5 27 64.5H77C83.6304 64.5 89.9893 67.1339 94.6777 71.8223C99.3661 76.5107 102 82.8696 102 89.5C102 92.8152 100.683 95.9946 98.3388 98.3388C95.9946 100.683 92.8152 102 89.5 102H14.5C11.1848 102 8.00537 100.683 5.66116 98.3388C3.31696 95.9946 2 92.8152 2 89.5Z" stroke="#CF02D9" stroke-width="3" stroke-linejoin="round"/>
<path d="M52.0001 39.5C62.3555 39.5 70.7501 31.1053 70.7501 20.75C70.7501 10.3947 62.3555 2 52.0001 2C41.6448 2 33.2501 10.3947 33.2501 20.75C33.2501 31.1053 41.6448 39.5 52.0001 39.5Z" stroke="#CF02D9" stroke-width="3"/>
</svg>
