<svg width="90" height="74" viewBox="0 0 90 74" fill="none" xmlns="http://www.w3.org/2000/svg">
<path fill-rule="evenodd" clip-rule="evenodd" d="M36.4333 0.541687H49.4C57.0583 0.541687 63.125 0.541688 67.8708 1.17919C72.7542 1.83752 76.7083 3.22085 79.8292 6.33752C83.6792 10.1917 84.9083 15.35 85.3542 22.0459C87.7583 23.1 89.575 25.3375 89.7708 28.1709C89.7917 28.425 89.7917 28.6959 89.7917 28.9459V45.0542C89.7917 45.3042 89.7917 45.575 89.775 45.825C89.575 48.6584 87.7583 50.9 85.3542 51.9584C84.9083 58.65 83.6792 63.8083 79.8292 67.6625C76.7083 70.7792 72.7542 72.1625 67.8708 72.8209C63.1208 73.4584 57.0583 73.4584 49.4 73.4584H36.4333C28.775 73.4584 22.7083 73.4584 17.9625 72.8209C13.0792 72.1625 9.125 70.7792 6.00417 67.6625C2.8875 64.5417 1.50417 60.5875 0.845836 55.7042C0.208336 50.9542 0.208336 44.8917 0.208336 37.2334V36.7667C0.208336 29.1084 0.208336 23.0417 0.845836 18.2959C1.50417 13.4125 2.8875 9.45835 6.00417 6.33752C9.125 3.22085 13.0792 1.83752 17.9625 1.17919C22.7125 0.541688 28.775 0.541687 36.4333 0.541687ZM79.0333 52.625H70.9583C62.0208 52.625 54.3708 45.8417 54.3708 37C54.3708 28.1584 62.0208 21.375 70.9542 21.375H79.0292C78.5542 15.7875 77.4833 12.8334 75.4042 10.7584C73.6417 8.99585 71.225 7.93752 67.0333 7.37502C62.7542 6.80002 57.1083 6.79169 49.1625 6.79169H36.6625C28.7167 6.79169 23.075 6.80002 18.7875 7.37502C14.6 7.93752 12.1833 8.99585 10.4208 10.7584C8.65834 12.5209 7.6 14.9375 7.0375 19.1292C6.4625 23.4125 6.45417 29.0542 6.45417 37C6.45417 44.9459 6.4625 50.5917 7.0375 54.875C7.6 59.0625 8.65834 61.4792 10.4208 63.2417C12.1833 65.0042 14.6 66.0625 18.7917 66.625C23.075 67.2 28.7167 67.2084 36.6625 67.2084H49.1625C57.1083 67.2084 62.7542 67.2 67.0375 66.625C71.225 66.0625 73.6417 65.0042 75.4042 63.2417C77.4833 61.1667 78.5583 58.2167 79.0333 52.625ZM16.875 20.3334C16.875 19.5046 17.2042 18.7097 17.7903 18.1236C18.3763 17.5376 19.1712 17.2084 20 17.2084H36.6667C37.4955 17.2084 38.2903 17.5376 38.8764 18.1236C39.4624 18.7097 39.7917 19.5046 39.7917 20.3334C39.7917 21.1622 39.4624 21.957 38.8764 22.5431C38.2903 23.1291 37.4955 23.4584 36.6667 23.4584H20C19.1712 23.4584 18.3763 23.1291 17.7903 22.5431C17.2042 21.957 16.875 21.1622 16.875 20.3334ZM82.1833 27.625H70.9583C65.025 27.625 60.6208 32.0375 60.6208 37C60.6208 41.9625 65.025 46.375 70.9542 46.375H82.2792C83.1375 46.3209 83.5083 45.7417 83.5375 45.3917V28.6084C83.5083 28.2584 83.1375 27.6792 82.2792 27.6292L82.1833 27.625Z" fill="#CF02D9"/>
</svg>
