<svg width="600" height="400" viewBox="0 0 600 400" fill="none" xmlns="http://www.w3.org/2000/svg">
<g clip-path="url(#clip0_1912_17239)">
<path d="M600 0H0V400H600V0Z" fill="black"/>
<path d="M194.998 207.043C194.998 208.59 194.464 209.883 193.398 210.923C192.331 211.936 190.971 212.443 189.318 212.443H182.358C180.704 212.443 179.344 211.936 178.278 210.923C177.211 209.883 176.678 208.59 176.678 207.043V194.643C176.678 193.096 177.211 191.816 178.278 190.803C179.344 189.763 180.704 189.243 182.358 189.243H189.318C190.971 189.243 192.331 189.763 193.398 190.803C194.464 191.816 194.998 193.096 194.998 194.643V207.043ZM190.998 207.243V194.443C190.998 194.043 190.851 193.696 190.558 193.403C190.291 193.11 189.971 192.963 189.598 192.963H182.078C181.704 192.963 181.371 193.11 181.078 193.403C180.811 193.696 180.678 194.043 180.678 194.443V207.243C180.678 207.643 180.811 207.99 181.078 208.283C181.371 208.576 181.704 208.723 182.078 208.723H189.598C189.971 208.723 190.291 208.576 190.558 208.283C190.851 207.99 190.998 207.643 190.998 207.243ZM218.764 212.443H214.684V204.683C214.684 203.936 214.564 203.43 214.324 203.163C214.111 202.896 213.684 202.763 213.044 202.763H205.364V212.443H201.404V189.243H213.084C214.738 189.243 216.098 189.763 217.164 190.803C218.231 191.816 218.764 193.096 218.764 194.643V197.163C218.764 198.683 218.244 199.896 217.204 200.803C218.244 201.55 218.764 202.67 218.764 204.163V212.443ZM214.684 197.123V194.363C214.684 193.963 214.538 193.603 214.244 193.283C213.951 192.936 213.631 192.763 213.284 192.763H205.364V198.923H212.844C213.591 198.923 214.084 198.803 214.324 198.563C214.564 198.323 214.684 197.843 214.684 197.123ZM235.954 212.443H225.154V208.803H228.514V192.883H225.154V189.243H235.954V192.883H232.554V208.803H235.954V212.443ZM259.942 207.043C259.942 208.59 259.408 209.883 258.342 210.923C257.275 211.936 255.915 212.443 254.262 212.443H248.022C246.368 212.443 245.008 211.936 243.942 210.923C242.875 209.883 242.342 208.59 242.342 207.043V194.643C242.342 193.096 242.875 191.816 243.942 190.803C245.008 189.763 246.368 189.243 248.022 189.243H254.262C255.915 189.243 257.275 189.763 258.342 190.803C259.408 191.816 259.942 193.096 259.942 194.643V196.283H255.862V194.363C255.862 193.963 255.715 193.616 255.422 193.323C255.155 193.03 254.835 192.883 254.462 192.883H247.822C247.448 192.883 247.115 193.03 246.822 193.323C246.555 193.616 246.422 193.963 246.422 194.363V207.203C246.422 207.603 246.555 207.95 246.822 208.243C247.115 208.536 247.448 208.683 247.822 208.683H254.462C254.835 208.683 255.155 208.536 255.422 208.243C255.715 207.95 255.862 207.603 255.862 207.203V202.683H251.102V198.963H259.942V207.043ZM277.126 212.443H266.326V208.803H269.686V192.883H266.326V189.243H277.126V192.883H273.726V208.803H277.126V212.443ZM300.954 212.443H296.874V205.403L287.594 195.723V212.443H283.514V189.243H286.954L296.874 199.683V189.243H300.954V212.443ZM324.942 198.323V212.443H320.902V205.123H311.382V212.443H307.342V198.323C307.342 197.443 307.448 196.723 307.662 196.163C307.875 195.603 308.275 195.043 308.862 194.483L314.382 189.243H317.902L323.422 194.483C324.008 195.043 324.408 195.603 324.622 196.163C324.835 196.723 324.942 197.443 324.942 198.323ZM320.902 201.603V198.523C320.902 197.856 320.728 197.35 320.382 197.003L316.102 192.763L311.902 197.003C311.555 197.35 311.382 197.856 311.382 198.523V201.603H320.902ZM345.886 212.443H331.326V189.243H335.486V208.723H345.886V212.443ZM368.602 207.123C368.602 208.67 368.069 209.963 367.002 211.003C365.936 212.016 364.576 212.523 362.922 212.523H356.762C355.109 212.523 353.749 212.016 352.682 211.003C351.616 209.963 351.082 208.67 351.082 207.123V205.643H355.082V207.323C355.082 207.723 355.216 208.07 355.482 208.363C355.776 208.656 356.109 208.803 356.482 208.803H363.202C363.576 208.803 363.896 208.656 364.162 208.363C364.456 208.07 364.602 207.723 364.602 207.323V204.323C364.602 203.87 364.442 203.523 364.122 203.283C363.802 203.016 363.336 202.843 362.722 202.763C362.109 202.683 361.509 202.643 360.922 202.643C360.362 202.616 359.656 202.616 358.802 202.643C357.976 202.67 357.349 202.683 356.922 202.683C355.269 202.63 353.909 202.096 352.842 201.083C351.776 200.07 351.242 198.79 351.242 197.243V194.643C351.242 193.096 351.776 191.816 352.842 190.803C353.909 189.763 355.269 189.243 356.922 189.243H362.602C364.256 189.243 365.616 189.763 366.682 190.803C367.749 191.816 368.282 193.096 368.282 194.643V196.163H364.282V194.443C364.282 194.043 364.136 193.696 363.842 193.403C363.576 193.11 363.256 192.963 362.882 192.963H356.642C356.269 192.963 355.936 193.11 355.642 193.403C355.376 193.696 355.242 194.043 355.242 194.443V197.483C355.242 197.936 355.402 198.296 355.722 198.563C356.042 198.803 356.509 198.963 357.122 199.043C357.762 199.123 358.349 199.176 358.882 199.203C359.442 199.203 360.149 199.19 361.002 199.163C361.882 199.11 362.522 199.083 362.922 199.083C364.549 199.136 365.896 199.67 366.962 200.683C368.056 201.696 368.602 202.976 368.602 204.523V207.123Z" fill="white"/>
<path d="M425.594 200.923C425.594 198.005 423.978 195.474 421.626 194.276C421.911 193.471 422.066 192.604 422.066 191.689C422.066 187.609 418.908 184.307 415.016 184.307C414.147 184.307 413.317 184.462 412.55 184.769C411.407 182.296 408.991 180.609 406.203 180.609C403.415 180.609 401.004 182.302 399.856 184.765C399.071 184.456 398.234 184.3 397.39 184.303C393.493 184.303 390.34 187.609 390.34 191.691C390.34 192.603 390.493 193.469 390.778 194.276C388.428 195.476 386.812 198.003 386.812 200.923C386.812 203.684 388.257 206.091 390.4 207.361C390.361 207.675 390.34 207.989 390.34 208.311C390.34 212.391 393.494 215.699 397.39 215.699C398.259 215.699 399.089 215.538 399.855 215.235C400.999 217.698 403.413 219.391 406.203 219.391C408.995 219.391 411.405 217.7 412.55 215.235C413.315 215.536 414.147 215.693 415.016 215.693C418.913 215.693 422.066 212.389 422.066 208.305C422.066 207.985 422.045 207.671 422.006 207.359C424.143 206.091 425.594 203.684 425.594 200.925V200.923ZM413.377 194.767L405.373 206.769C405.273 206.921 405.143 207.052 404.992 207.153C404.841 207.255 404.671 207.326 404.492 207.362C404.314 207.397 404.13 207.398 403.951 207.362C403.773 207.327 403.603 207.256 403.451 207.155L403.238 206.981L398.778 202.521C398.65 202.392 398.548 202.24 398.478 202.071C398.409 201.903 398.373 201.723 398.373 201.542C398.373 201.36 398.409 201.18 398.478 201.012C398.548 200.844 398.65 200.691 398.778 200.562C398.907 200.434 399.06 200.332 399.228 200.262C399.396 200.193 399.576 200.157 399.758 200.157C399.939 200.157 400.12 200.193 400.288 200.262C400.456 200.332 400.608 200.434 400.737 200.562L404.004 203.826L411.068 193.227C411.272 192.921 411.589 192.708 411.95 192.636C412.128 192.601 412.312 192.6 412.491 192.636C412.669 192.671 412.839 192.741 412.991 192.842C413.142 192.943 413.272 193.073 413.374 193.224C413.475 193.375 413.546 193.545 413.581 193.724C413.617 193.902 413.617 194.086 413.582 194.265C413.547 194.443 413.477 194.613 413.376 194.765V194.767H413.377Z" fill="#F2399D"/>
</g>
<defs>
<clipPath id="clip0_1912_17239">
<rect width="600" height="400" fill="white"/>
</clipPath>
</defs>
</svg>
